<?xml version="1.0" standalone="no"?>
<!DOCTYPE svg PUBLIC "-//W3C//DTD SVG 20010904//EN"
 "http://www.w3.org/TR/2001/REC-SVG-20010904/DTD/svg10.dtd">
<svg version="1.0" xmlns="http://www.w3.org/2000/svg"
 width="256.000000pt" height="256.000000pt" viewBox="0 0 256.000000 256.000000"
 preserveAspectRatio="xMidYMid meet">
<metadata>
Created by potrace 1.11, written by Peter Selinger 2001-2013
</metadata>
<g transform="translate(0.000000,256.000000) scale(0.100000,-0.100000)"
fill="#000000" stroke="none">
<path d="M1107 2504 c-3 -4 -27 -8 -54 -11 -26 -2 -52 -8 -58 -12 -5 -5 -20
-7 -32 -6 -13 1 -23 -1 -23 -5 0 -3 -22 -13 -50 -20 -27 -7 -50 -17 -50 -22 0
-4 -9 -8 -19 -8 -11 0 -26 -6 -33 -13 -7 -8 -19 -12 -26 -9 -6 2 -12 0 -12 -5
0 -5 -18 -17 -40 -27 -22 -10 -40 -22 -40 -27 0 -5 -5 -9 -11 -9 -6 0 -24 -9
-40 -21 -16 -11 -29 -18 -29 -15 0 2 -16 -11 -36 -30 -20 -18 -40 -31 -45 -28
-5 3 -9 -2 -9 -10 0 -9 -3 -16 -7 -16 -21 0 -223 -216 -223 -237 0 -6 -7 -14
-16 -17 -8 -3 -12 -10 -9 -16 3 -5 2 -10 -2 -10 -9 0 -49 -62 -44 -69 1 -2 -1
-7 -6 -10 -16 -11 -78 -148 -75 -163 1 -5 -2 -8 -8 -8 -5 0 -7 -6 -4 -14 3 -8
0 -17 -5 -21 -6 -3 -9 -11 -6 -16 4 -5 2 -9 -4 -9 -5 0 -8 -11 -6 -25 1 -14
-2 -25 -7 -25 -6 0 -8 -7 -5 -15 4 -8 2 -17 -3 -20 -4 -3 -7 -16 -6 -30 2 -13
0 -22 -5 -20 -4 3 -8 -3 -8 -12 0 -10 -1 -33 -1 -51 -1 -22 -5 -30 -13 -25 -9
5 -9 3 -1 -8 9 -13 11 -26 4 -46 -6 -20 -4 -39 5 -52 7 -11 7 -13 -3 -7 -16 9
-16 -6 1 -23 10 -11 9 -12 -3 -6 -13 8 -13 7 -1 -8 9 -12 10 -17 2 -17 -7 0
-9 -5 -4 -13 14 -22 14 -49 1 -41 -10 6 -10 4 0 -8 7 -9 13 -32 14 -51 1 -23
5 -34 12 -30 6 4 5 0 -2 -9 -9 -12 -10 -18 -2 -23 6 -4 9 -12 7 -19 -2 -6 0
-22 6 -36 9 -23 15 -47 19 -77 1 -7 5 -13 8 -13 7 0 24 -58 21 -72 0 -5 4 -8
10 -8 6 0 9 -7 5 -15 -3 -8 -2 -15 2 -15 4 0 18 -25 32 -55 14 -30 28 -55 33
-55 4 0 7 -5 7 -11 0 -6 13 -30 30 -54 16 -24 30 -49 30 -55 0 -6 4 -9 9 -5 5
3 12 -3 15 -13 4 -10 26 -40 51 -67 25 -26 45 -51 45 -56 0 -4 9 -11 20 -14
11 -3 20 -13 20 -21 0 -8 4 -12 10 -9 5 3 10 2 10 -3 0 -5 30 -33 67 -63 38
-30 70 -57 71 -62 2 -4 7 -5 12 -2 4 2 15 -4 25 -15 10 -11 24 -20 32 -20 7 0
13 -5 13 -11 0 -5 4 -8 9 -5 5 3 14 -1 21 -9 7 -8 20 -15 30 -15 10 0 23 -7
30 -15 7 -8 21 -15 31 -15 11 0 19 -4 19 -10 0 -5 9 -10 20 -10 11 0 20 -5 20
-12 0 -6 3 -9 6 -5 4 3 23 -1 43 -8 20 -8 47 -17 61 -19 14 -3 27 -5 30 -6 3
-2 8 -2 13 -1 4 0 7 -5 7 -11 0 -9 4 -8 10 2 7 11 10 11 10 2 0 -7 4 -11 9 -7
5 3 12 1 16 -5 4 -6 11 -8 16 -4 5 3 17 0 26 -8 14 -11 16 -11 8 2 -8 13 -7
13 8 1 13 -10 17 -10 17 -1 0 9 3 10 13 2 18 -15 287 -14 306 2 10 7 13 7 8 0
-3 -6 0 -11 8 -11 8 0 12 4 9 9 -3 4 9 9 25 9 30 1 48 4 54 9 1 1 10 3 19 5 9
2 34 9 55 16 21 7 41 12 46 11 4 -1 7 3 7 9 0 5 4 8 9 4 11 -6 61 14 61 25 0
4 6 7 13 7 6 0 49 22 94 50 45 28 84 49 87 45 3 -3 6 0 6 6 0 7 5 12 11 12 18
0 98 70 120 107 19 31 25 53 33 136 1 16 -1 30 -6 33 -5 3 -5 11 -1 17 6 10 8
45 3 65 -1 4 -2 53 -2 109 0 81 -3 100 -14 96 -7 -3 -16 -12 -19 -21 -3 -10
-20 -34 -39 -54 -19 -20 -31 -39 -28 -43 3 -3 -4 -8 -16 -12 -12 -3 -20 -9
-17 -13 3 -4 -7 -16 -20 -26 -14 -10 -25 -24 -25 -31 0 -6 -9 -15 -20 -18 -11
-3 -20 -11 -20 -16 0 -5 -7 -9 -16 -9 -8 0 -13 -4 -10 -9 3 -4 -6 -13 -19 -19
-14 -7 -25 -16 -25 -22 0 -6 -4 -8 -10 -5 -5 3 -10 1 -10 -4 0 -6 -4 -11 -10
-11 -5 0 -19 -8 -30 -18 -11 -9 -23 -15 -27 -14 -3 2 -9 0 -12 -5 -3 -5 -18
-16 -33 -26 -20 -13 -28 -14 -28 -5 0 8 -5 5 -11 -5 -6 -9 -14 -15 -20 -12 -5
4 -9 1 -9 -6 0 -7 -3 -9 -7 -6 -3 4 -12 2 -20 -4 -7 -6 -13 -8 -13 -4 0 4 -6
2 -14 -4 -8 -7 -29 -13 -46 -13 -17 -1 -33 -5 -36 -10 -3 -4 -10 -6 -15 -3 -5
4 -9 2 -9 -2 0 -5 -18 -8 -40 -7 -22 0 -40 -3 -40 -7 0 -9 -34 -4 -52 7 -7 4
-8 3 -4 -4 4 -7 3 -12 -3 -12 -5 0 -13 5 -16 10 -5 8 -11 8 -20 0 -10 -8 -15
-8 -20 0 -5 8 -11 8 -21 -1 -8 -6 -14 -7 -14 -2 0 5 -10 10 -22 10 -72 4 -89
7 -93 13 -2 4 -18 6 -34 5 -17 -1 -28 2 -25 7 5 7 -18 12 -38 9 -5 0 -8 4 -8
9 0 6 -6 10 -12 8 -15 -3 -171 72 -176 84 -2 4 -8 8 -14 8 -5 0 -15 6 -22 12
-8 7 -24 20 -36 28 -12 8 -36 27 -52 41 -17 15 -35 31 -42 36 -38 32 -115 128
-161 202 -5 9 -18 28 -27 42 -10 14 -15 29 -11 33 3 3 1 6 -5 6 -7 0 -11 3
-10 8 1 4 -7 27 -18 52 -10 25 -18 48 -16 53 1 4 -2 7 -7 7 -6 0 -10 9 -10 20
-1 11 -1 29 -2 40 0 11 -4 20 -8 20 -5 0 -8 10 -7 22 1 13 -3 26 -9 30 -6 5
-5 8 4 8 11 0 11 3 1 15 -7 8 -9 15 -5 15 4 0 2 7 -5 15 -7 8 -9 15 -4 15 5 0
9 18 9 40 0 22 -4 40 -10 40 -5 0 -3 5 5 10 13 9 13 10 0 10 -13 0 -13 1 0 10
8 5 11 10 6 10 -5 0 -3 6 3 14 9 10 9 16 1 21 -8 5 -8 11 1 21 6 8 9 14 6 14
-4 0 0 21 17 90 3 8 9 27 14 41 6 15 8 30 5 33 -4 3 -1 6 5 6 7 0 12 9 12 20
0 11 5 20 10 20 6 0 10 6 10 14 0 18 63 124 91 154 11 12 17 22 14 22 -3 0 4
11 17 24 13 14 35 38 50 54 14 17 29 28 32 25 3 -4 6 0 6 8 0 8 18 27 40 42
22 16 40 33 40 38 0 6 5 7 10 4 6 -3 13 1 16 9 3 9 12 16 20 16 8 0 14 5 14
12 0 6 3 9 6 5 4 -3 23 5 43 18 19 14 41 25 47 25 6 0 17 7 24 15 11 13 15 13
21 3 5 -7 9 -8 9 -2 0 6 19 17 43 24 23 7 49 15 57 18 8 3 28 7 45 9 16 3 36
9 42 15 9 8 13 7 13 -3 0 -11 2 -11 10 1 8 12 10 12 10 1 0 -10 4 -11 13 -3 7
6 42 9 79 8 41 -2 65 1 61 6 -3 6 5 5 17 -2 12 -6 24 -9 27 -6 3 2 16 1 29 -4
16 -6 24 -6 24 1 0 6 6 4 14 -3 7 -8 26 -13 42 -12 16 0 32 -3 35 -8 3 -5 20
-10 37 -11 18 -1 32 -5 32 -9 0 -5 9 -8 20 -8 11 0 20 -5 20 -11 0 -5 4 -8 9
-4 5 3 12 1 16 -5 4 -6 11 -8 16 -5 5 4 9 1 9 -5 0 -6 4 -9 9 -6 5 3 14 -1 21
-9 7 -8 21 -15 32 -15 10 0 16 -4 13 -10 -3 -5 1 -10 9 -10 8 0 21 -6 28 -13
7 -6 30 -23 50 -37 21 -14 38 -29 38 -33 0 -5 5 -5 10 -2 6 3 10 2 10 -4 0 -5
21 -32 48 -59 53 -55 92 -100 92 -107 0 -3 9 -15 20 -27 10 -12 17 -25 14 -30
-3 -4 1 -11 10 -14 8 -3 17 -12 20 -20 3 -9 1 -12 -4 -9 -6 4 3 -13 19 -37 16
-23 27 -46 25 -50 -3 -5 -1 -8 5 -8 6 0 8 -7 5 -15 -4 -8 -1 -15 7 -15 7 0 10
-3 7 -6 -4 -3 0 -17 7 -30 7 -14 12 -39 11 -55 -1 -16 1 -29 5 -29 4 0 6 -12
3 -26 -3 -14 -1 -23 3 -21 4 3 8 -20 7 -51 -1 -32 3 -63 9 -69 5 -8 6 -13 0
-13 -5 0 -9 -13 -8 -30 0 -16 3 -30 8 -30 8 0 2 -43 -9 -61 -4 -8 -3 -9 4 -5
16 9 15 -7 0 -22 -9 -9 -9 -12 0 -12 9 0 12 -27 12 -92 1 -310 7 -636 13 -645
4 -7 4 -14 -1 -17 -9 -6 -9 -87 1 -103 4 -6 4 -14 -1 -17 -4 -2 -8 -40 -8 -83
l1 -77 153 -1 c83 0 152 2 153 5 0 3 1 102 2 220 1 118 5 220 10 227 4 6 3 15
-3 18 -8 5 -8 11 0 20 8 10 8 15 0 20 -8 5 -8 10 0 20 8 10 8 15 0 20 -8 5 -8
10 0 20 8 10 8 15 0 20 -8 5 -8 10 0 20 8 9 8 15 0 20 -5 3 -10 11 -10 16 0 6
6 7 13 3 9 -6 9 -4 1 7 -7 9 -11 66 -10 157 1 78 -3 142 -7 142 -4 0 -3 8 2
18 6 11 6 24 0 35 -7 12 -6 17 3 17 10 0 10 2 -1 9 -9 6 -10 11 -2 15 6 4 8
12 5 18 -4 6 -9 27 -11 45 -3 26 0 33 9 27 8 -4 7 0 -2 12 -12 14 -16 42 -15
101 0 46 -2 83 -5 83 -3 0 -7 19 -8 43 -4 70 -7 91 -15 105 -5 7 -3 12 5 12
10 0 10 2 1 8 -7 5 -15 21 -16 38 -7 53 -19 94 -29 94 -5 0 -7 4 -3 9 3 5 -1
16 -9 24 -8 8 -12 17 -9 21 3 3 -2 15 -12 26 -10 11 -14 20 -9 20 5 0 3 4 -4
9 -7 4 -14 17 -15 29 0 12 -7 24 -14 26 -7 3 -13 12 -13 21 0 8 -4 15 -8 15
-5 0 -14 16 -22 35 -7 19 -16 33 -18 30 -3 -2 -18 16 -35 41 -16 25 -36 48
-44 51 -7 3 -13 9 -13 14 0 11 -85 95 -136 135 -21 16 -45 36 -55 46 -10 9
-20 14 -23 11 -3 -4 -6 -1 -6 5 0 7 -7 12 -15 12 -8 0 -15 5 -15 11 0 5 -5 7
-10 4 -6 -3 -13 1 -16 9 -3 9 -15 16 -25 16 -10 0 -19 3 -19 8 0 8 -81 47 -92
44 -5 -1 -8 3 -8 9 0 5 -4 8 -9 4 -5 -3 -16 1 -24 9 -8 8 -17 12 -21 9 -3 -3
-12 -1 -19 5 -8 7 -17 9 -20 5 -4 -3 -7 -1 -7 4 0 6 -11 10 -25 8 -14 -1 -29
3 -33 9 -4 6 -16 12 -27 14 -11 2 -28 4 -37 6 -10 1 -20 5 -24 8 -3 4 -12 4
-20 1 -8 -3 -14 -1 -14 4 0 5 -9 9 -20 9 -11 0 -20 -5 -20 -11 0 -5 -4 -4 -9
3 -5 8 -32 14 -69 15 -34 1 -62 5 -62 10 0 4 -5 7 -11 7 -5 0 -7 -6 -3 -12 5
-10 4 -10 -6 -1 -9 8 -19 9 -31 3 -12 -7 -20 -6 -24 0 -5 8 -11 8 -20 0 -8 -6
-16 -7 -19 -2 -6 9 -53 8 -63 -2 -3 -3 -13 -1 -23 4 -10 5 -20 7 -23 4z"/>
</g>
</svg>
