<?xml version="1.0" encoding="UTF-8"?>
<!DOCTYPE svg PUBLIC "-//W3C//DTD SVG 1.1//EN" "http://www.w3.org/Graphics/SVG/1.1/DTD/svg11.dtd">
<!-- Creator: CorelDRAW X6 -->
<svg xmlns="http://www.w3.org/2000/svg" xml:space="preserve" width="72.3544mm" height="23.147mm" version="1.1" style="shape-rendering:geometricPrecision; text-rendering:geometricPrecision; image-rendering:optimizeQuality; fill-rule:evenodd; clip-rule:evenodd"
viewBox="0 0 3314 1060"
 xmlns:xlink="http://www.w3.org/1999/xlink">
 <defs>
  <style type="text/css">
   <![CDATA[
    .fil0 {fill:#FC7E05}
    .fil1 {fill:#4E4E4E;fill-rule:nonzero}
   ]]>
  </style>
 </defs>
 <g id="Слой_x0020_1">
  <metadata id="CorelCorpID_0Corel-Layer"/>
  <g id="_646569360">
   <path class="fil0" d="M2392 996c55,-44 43,-31 43,-172 -219,328 -628,25 -489,-246 115,-224 420,-202 507,37 19,51 15,399 15,434l89 0c0,-68 10,-400 -22,-480 -65,-166 -219,-251 -397,-237 -101,8 -220,98 -271,194 -164,308 175,641 470,501l52 -31z"/>
   <path class="fil1" d="M658 1055c-78,-13 -133,-36 -197,-86 -103,-81 -152,-239 -117,-366 95,-344 571,-364 695,-28l15 58 -627 0c-15,137 20,236 148,307 99,56 249,23 323,-61l46 -68 95 0c-58,150 -215,267 -381,243zm267 -507c-14,-41 -98,-96 -138,-111 -117,-43 -271,10 -320,108l-3 0c73,12 366,3 461,3zm480 507c-89,-13 -153,-42 -215,-105 -246,-246 -40,-667 317,-612 72,11 123,45 181,86l-3 129 -3 0c-163,-244 -512,-124 -510,141 1,273 360,377 507,138 53,-85 41,-193 43,-289 3,-180 0,-361 0,-541 28,-5 57,-3 86,-3 0,115 11,685 -6,769 -35,174 -220,311 -397,286zm-1405 -203c0,-166 -11,-332 138,-443 73,-54 155,-72 242,-77 1,31 -3,61 -3,86 -110,11 -208,43 -261,151 -29,59 -30,128 -29,195 1,32 2,63 0,93 0,-8 -1,117 -1,87l-2 102 -86 0 0 -194zm2586 -12c0,-169 -17,-268 105,-400 195,-213 582,-91 618,209 10,83 3,315 3,397 -18,0 -72,3 -89,-3 0,-48 8,-348 -6,-406 -62,-264 -413,-290 -523,-43 -31,70 -21,376 -22,455l-86 -3 0 -206z"/>
  </g>
 </g>
</svg>
