<svg xmlns="http://www.w3.org/2000/svg" viewBox="0 0 205.25 65.68"><defs><style>.cls-1{fill:#fc7e05;}.cls-2{fill:#4e4e4e;}</style></defs><title>Asset 2</title><g id="Layer_2" data-name="Layer 2"><g id="Layer_1-2" data-name="Layer 1"><path class="cls-1" d="M148.16,61.73c3.41-2.73,2.66-1.92,2.66-10.65-13.55,20.3-38.86,1.55-30.26-15.22,7.12-13.87,26-12.5,31.38,2.29,1.17,3.15.93,24.69.93,26.86h5.5c0-4.21.62-24.76-1.36-29.71C153,25,143.46,19.77,132.44,20.63c-6.25.5-13.61,6.07-16.77,12-10.15,19.06,10.83,39.67,29.09,31L148,61.73Z"/><path class="cls-2" d="M40.85,65.38a24.72,24.72,0,0,1-12.2-5.32c-6.37-5-9.4-14.79-7.24-22.65,5.88-21.29,35.34-22.53,43-1.74l.92,3.59H26.55c-.93,8.48,1.24,14.61,9.16,19,6.13,3.47,15.41,1.43,20-3.77l2.85-4.21h5.88c-3.59,9.28-13.31,16.52-23.58,15ZM57.37,34c-.87-2.54-6.06-5.94-8.54-6.87-7.24-2.66-16.77.62-19.8,6.69h-.19C33.36,34.56,51.49,34,57.37,34ZM87.08,65.38c-5.51-.81-9.47-2.6-13.31-6.5C58.55,43.66,71.3,17.6,93.39,21c4.46.69,7.61,2.79,11.2,5.33l-.18,8h-.19C94.13,19.21,72.53,26.64,72.66,43c.06,16.89,22.28,23.33,31.37,8.54,3.28-5.26,2.54-11.95,2.67-17.89.18-11.14,0-22.34,0-33.48A30.3,30.3,0,0,1,112,0c0,7.12.68,42.4-.37,47.6C109.48,58.39,98,66.86,87.08,65.32ZM.12,52.82c0-10.28-.68-20.55,8.54-27.42,4.52-3.34,9.6-4.46,15-4.77.06,1.92-.18,3.78-.18,5.33-6.81.68-12.88,2.66-16.16,9.34C5.51,39,5.45,43.22,5.51,47.37c.06,2,.12,3.9,0,5.75,0-.49-.06,7.25-.06,5.39l-.13,6.31H0v-12Zm160-.75c0-10.46-1-16.58,6.5-24.75,12.06-13.18,36-5.63,38.24,12.93.62,5.14.19,19.5.19,24.57-1.11,0-4.46.19-5.51-.18,0-3,.5-21.54-.37-25.13-3.84-16.34-25.56-17.95-32.37-2.66-1.92,4.33-1.3,23.27-1.36,28.16l-5.32-.19Z"/></g></g></svg>