<svg xmlns="http://www.w3.org/2000/svg" width="440.097" height="109.759" viewBox="0 0 412.59107 102.899"><path d="M123.901 45.24c0-13.829 11.306-24.728 25.49-24.728 14.255 0 25.49 10.899 25.49 24.728 0 13.829-11.235 24.727-25.49 24.727-14.185-.001-25.49-10.899-25.49-24.727zm42.904 0c0-9.81-7.584-17.098-17.415-17.098-9.83 0-17.415 7.288-17.415 17.098 0 9.809 7.584 17.098 17.415 17.098s17.415-7.289 17.415-17.098zm51.265 6.811c0 10.082-7.936 17.915-17.486 17.915-5.477 0-9.62-2.179-12.289-5.79v18.529h-7.584V35.021h7.584v4.836c2.668-3.542 6.812-5.721 12.29-5.721 9.55 0 17.484 7.766 17.484 17.915zm-7.584 0c0-6.335-4.775-10.899-11.095-10.899-6.039 0-10.674 4.155-11.095 10.014v1.77c.421 5.859 5.056 10.014 11.095 10.014 6.32.001 11.095-4.563 11.095-10.899zm30.056-9.945h-6.46v26.975h-7.584V42.106h-6.46v-7.085h6.46V24.122h7.584v10.899h6.46v7.085zm1.616 9.945c0-10.15 8.286-17.915 18.538-17.915 10.323 0 18.538 7.765 18.538 17.915 0 10.082-8.215 17.915-18.538 17.915-10.252 0-18.538-7.833-18.538-17.915zm29.493 0c0-6.199-4.776-10.763-10.955-10.763-6.18 0-10.954 4.564-10.954 10.763 0 6.2 4.775 10.763 10.954 10.763 6.18 0 10.955-4.563 10.955-10.763zm29.986 17.915c-10.603 0-18.539-7.833-18.539-17.915 0-10.15 7.936-17.915 18.54-17.915 8.496 0 15.588 5.245 17.343 12.806h-8.005c-1.475-3.406-5.056-5.586-9.34-5.586-6.18 0-10.954 4.564-10.954 10.695s4.775 10.695 10.954 10.695c4.353 0 7.935-2.249 9.34-5.586h8.005c-1.755 7.494-8.847 12.806-17.344 12.806zm51.404-22.818v21.934h-7.584V47.557c0-4.36-2.738-6.541-6.46-6.541-3.932 0-7.513 2.249-7.513 8.516v19.55h-7.583V21.399h7.583v17.506c2.248-3.338 5.617-4.768 9.972-4.768 6.528-.001 11.585 4.835 11.585 13.011zm6.884-12.127h7.583v34.06h-7.583v-34.06zm52.666 17.03c0 10.082-7.935 17.915-17.484 17.915-5.478 0-9.62-2.179-12.289-5.79v18.529h-7.583V35.021h7.583v4.836c2.67-3.542 6.812-5.721 12.29-5.721 9.548 0 17.483 7.766 17.483 17.915zm-7.584 0c0-6.335-4.776-10.899-11.095-10.899-6.039 0-10.674 4.155-11.095 10.014v1.77c.421 5.859 5.056 10.014 11.095 10.014 6.32.001 11.095-4.563 11.095-10.899z" fill="#fff"/><path d="M363.672 21.398h.09a3.747 3.747 0 0 1 3.747 3.747v.68a3.747 3.747 0 0 1-3.747 3.747h-.09a3.747 3.747 0 0 1-3.747-3.747v-.68a3.748 3.748 0 0 1 3.747-3.747z" fill="#20bf55"/><path d="M99.136 55.665c0-.031 0-.058.004-.085v-.025l-.006.128a.1.1 0 0 0 .002-.018zm-45.144-31.15c-14.86 0-26.957 12.092-26.957 26.957 0 14.862 12.096 26.953 26.957 26.953h.02c14.864 0 26.956-12.092 26.956-26.953 0-14.865-12.099-26.957-26.976-26.957zm0 45.425c-10.183 0-18.472-8.285-18.472-18.468C35.52 41.285 43.817 33 54.011 33c10.187 0 18.472 8.285 18.472 18.472 0 10.183-8.293 18.468-18.49 18.468zm45.14-14.194v-.016.016z" fill="none"/><path d="M54.011 36.472c-8.28 0-15.02 6.727-15.02 15 0 8.27 6.731 14.996 15 14.996 8.281 0 15.02-6.727 15.02-14.996 0-8.273-6.726-15-15-15z" fill="none"/><path d="M99.152 55.278l.011-.253c0 .032-.006.127-.01.253zm-87.135-7.909c-.009.141-.007.114 0 0z" fill="#0300ff"/><path d="M53.992 21.044c-16.778 0-30.429 13.65-30.429 30.429 0 16.779 13.65 30.425 30.43 30.425h.018c16.778 0 30.43-13.646 30.43-30.425s-13.66-30.429-30.45-30.429zm.02 57.382h-.02c-14.86 0-26.957-12.092-26.957-26.953 0-14.865 12.096-26.957 26.957-26.957 14.877 0 26.977 12.092 26.977 26.957 0 14.861-12.093 26.953-26.958 26.953z" fill="#20bf55"/><path d="M54.011 33.001c-10.194 0-18.49 8.285-18.49 18.472 0 10.183 8.288 18.468 18.471 18.468 10.198 0 18.491-8.285 18.491-18.468 0-10.187-8.285-18.472-18.472-18.472zm-.019 33.468c-8.27 0-15-6.727-15-14.996 0-8.274 6.738-15 15.02-15 8.274 0 15 6.727 15 15 0 8.269-6.739 14.996-15.02 14.996z" fill="#20bf55"/><path d="M104.663 42.127c-1.512-8.335-4.983-15.961-10.322-22.668C84.513 7.089 69.825 0 54.046 0h-.085c-15.78 0-30.464 7.089-40.29 19.448-5.436 6.839-8.996 14.827-10.43 23.324a4.447 4.447 0 0 0-3.237 4.073 4.448 4.448 0 0 0 4.24 4.629 4.447 4.447 0 0 0 4.62-4.112c.004-.038.004-.081.008-.127 0-.035.004-.069.004-.108v-.031a4.458 4.458 0 0 0-2.19-3.88c1.353-7.865 4.662-15.267 9.704-21.604 9.165-11.529 22.857-18.14 37.572-18.14h.085c14.715 0 28.411 6.615 37.576 18.148 4.54 5.701 7.63 12.111 9.211 19.085h-8.76c-1.404-5.01-3.788-9.651-7.089-13.805-7.548-9.496-18.823-14.943-30.938-14.943h-.085c-12.11 0-23.386 5.443-30.934 14.935a39.272 39.272 0 0 0-7.598 15.845 4.434 4.434 0 0 0-3.37 4.027 4.44 4.44 0 0 0 4.142 4.71 4.443 4.443 0 0 0 4.71-4.146 4.437 4.437 0 0 0-2.048-4.027 35.765 35.765 0 0 1 6.885-14.248C32.63 20.394 42.917 15.43 53.964 15.43h.085c11.047 0 21.334 4.968 28.22 13.627 3.278 4.127 5.557 8.767 6.78 13.793l.324 1.327h15.664l-.374-2.05zm-97.71 4.928a2.443 2.443 0 0 1-2.593 2.28 2.443 2.443 0 0 1-1.382-.546 2.439 2.439 0 0 1 1.698-4.327 2.441 2.441 0 0 1 2.277 2.593zm12 0a2.443 2.443 0 0 1-2.593 2.28 2.443 2.443 0 0 1-1.382-.546 2.439 2.439 0 0 1 1.698-4.327 2.441 2.441 0 0 1 2.277 2.593zm84.807 4.418a4.44 4.44 0 0 0-4.62 4.055l.011-.249-.01.25-.002.007v.02l-.006.13-.002.019v.044c0 .002 0 .003-.004.006v.06l-.02.476.02-.475a4.441 4.441 0 0 0 2.187 3.907c-1.358 7.853-4.663 15.239-9.693 21.565-9.168 11.529-22.865 18.14-37.576 18.14h-.085c-14.707 0-28.404-6.607-37.572-18.132-4.413-5.554-7.56-12.104-9.172-19.058h8.73c1.403 4.999 3.783 9.627 7.081 13.774 7.552 9.489 18.827 14.931 30.934 14.931h.085c12.107 0 23.382-5.442 30.938-14.935a39.333 39.333 0 0 0 7.587-15.799 4.446 4.446 0 0 0 3.375-4.023l.001-.028c.01-.134.016-.247.022-.337l-.022.336a1.09 1.09 0 0 0 .003-.08c.004-.062.004-.12.004-.181 0-2.318-1.805-4.278-4.15-4.424a4.44 4.44 0 0 0-4.713 4.139 4.437 4.437 0 0 0 2.048 4.027 35.866 35.866 0 0 1-6.873 14.206c-6.889 8.663-17.176 13.627-28.219 13.627h-.085c-11.043 0-21.33-4.964-28.215-13.624-3.275-4.112-5.554-8.74-6.773-13.754l-.324-1.327H2.994l.382 2.056c1.54 8.27 5.1 16.092 10.295 22.633 9.832 12.358 24.52 19.444 40.291 19.444h.085c15.776 0 30.464-7.089 40.295-19.448 5.423-6.827 8.98-14.8 10.418-23.282a4.434 4.434 0 0 0 3.236-4.069 4.44 4.44 0 0 0-4.236-4.627zm-4.628 4.273v-.016.016zm.007-.166c-.004.027-.004.054-.004.085a.11.11 0 0 1-.002.018l.006-.128v.025zm-10.057.159a2.441 2.441 0 1 1 .895 2.051 2.443 2.443 0 0 1-.895-2.051zm16.41 1.594a2.475 2.475 0 0 1-1.567.973 2.443 2.443 0 0 1-1.947-.516 2.439 2.439 0 0 1 1.698-4.327 2.441 2.441 0 0 1 1.815 3.87z" fill="#20bf55"/></svg>